<?xml version="1.0" standalone="no"?>
<!DOCTYPE svg PUBLIC "-//W3C//DTD SVG 20010904//EN"
 "http://www.w3.org/TR/2001/REC-SVG-20010904/DTD/svg10.dtd">
<svg version="1.0" xmlns="http://www.w3.org/2000/svg"
 width="196.000000pt" height="196.000000pt" viewBox="0 0 196.000000 196.000000"
 preserveAspectRatio="xMidYMid meet">
<metadata>
Created by potrace 1.14, written by Peter Selinger 2001-2017
</metadata>
<g transform="translate(0.000000,196.000000) scale(0.100000,-0.100000)"
fill="#000000" stroke="none">
<path d="M279 1367 c-84 -31 -128 -74 -168 -162 -22 -48 -27 -250 -7 -318 22
-75 70 -136 136 -172 49 -26 65 -30 140 -30 99 0 184 23 229 61 l31 26 0 139
0 140 -132 -3 -133 -3 0 -50 0 -50 63 -3 62 -3 0 -60 c0 -56 -2 -60 -27 -70
-45 -18 -127 -14 -164 7 -58 34 -74 82 -74 219 0 130 8 157 60 205 22 20 37
25 80 24 64 0 99 -21 116 -69 l13 -35 68 0 c74 0 75 1 57 61 -16 51 -62 105
-112 131 -53 27 -184 35 -238 15z"/>
<path d="M940 1371 c-78 -25 -136 -78 -172 -156 -20 -44 -23 -65 -23 -185 0
-127 2 -138 28 -192 64 -131 198 -186 346 -142 89 26 170 120 171 197 0 27 0
27 -70 27 -64 0 -70 -2 -70 -20 0 -33 -26 -75 -55 -88 -36 -16 -110 -15 -144
3 -43 22 -63 76 -69 180 -6 117 10 196 48 234 74 74 220 30 220 -66 0 -22 4
-23 70 -23 67 0 70 1 70 24 0 34 -33 106 -65 139 -45 47 -102 70 -185 73 -41
2 -86 0 -100 -5z"/>
<path d="M1390 1030 l0 -340 70 0 70 0 0 125 0 125 55 0 55 0 62 -125 63 -125
78 0 78 0 -75 143 -74 142 39 28 c104 72 104 255 0 324 -54 36 -96 43 -263 43
l-158 0 0 -340z m292 219 c64 -17 89 -99 48 -152 -25 -31 -75 -47 -147 -47
l-53 0 0 105 0 105 58 0 c31 0 74 -5 94 -11z"/>
</g>
</svg>
